<svg id="Layer_1" data-name="Layer 1" xmlns="http://www.w3.org/2000/svg" viewBox="0 0 786.29 749.2"><defs><style>.cls-1{fill:#3f3d56;}.cls-2{fill:#ffb8b8;}.cls-3{fill:#90e0ef;}.cls-4{fill:#e6e6e6;}.cls-5{fill:#2f2e41;}.cls-6{opacity:0.1;}.cls-6,.cls-8{isolation:isolate;}.cls-7{fill:#ff6584;}.cls-8{opacity:0.2;}</style></defs><title>undraw_friends_r511</title><ellipse class="cls-1" cx="428.29" cy="670.89" rx="358" ry="40"/><path class="cls-2" d="M605.84,626.63l6.18,19s29.73,30.72,19,39.05-34.89-35.57-34.89-35.57l-4.44-21.47Z"/><path class="cls-3" d="M548.79,479.39l9-3s14,4,16,18,17,85,17,85,6,3,2,8,20,50,20,50l-19,9s-38-40-38-44,1-8,1-12-1-4,0-7a31.72,31.72,0,0,0,1-8l-7-16Z"/><ellipse class="cls-3" cx="90.42" cy="363.5" rx="90.42" ry="184.49"/><path class="cls-1" d="M89.59,365.41c4.51-80.31,13.6-134.55,13.69-135.09l-2-.33c-.09.54-9.19,54.87-13.71,135.28-4.17,74.21-5.17,186.46,13.71,299.78l2-.32C84.42,551.6,85.43,439.52,89.59,365.41Z"/><rect class="cls-1" x="84.46" y="347.84" width="92.73" height="2" transform="translate(-149.13 103.02) rotate(-28.16)"/><rect class="cls-1" x="43.53" y="324.4" width="2" height="92.73" transform="translate(-303.41 235.16) rotate(-61.86)"/><ellipse class="cls-4" cx="304.57" cy="252.46" rx="123.73" ry="252.46"/><path class="cls-1" d="M303.06,255c6.18-109.91,18.61-184.15,18.74-184.88l-2-.34c-.13.74-12.58,75.07-18.76,185.08C295.36,356.44,294,510,319.83,665.05l2-.32C296,509.88,297.37,356.47,303.06,255Z"/><rect class="cls-1" x="296.42" y="231.4" width="126.89" height="2" transform="translate(-67.08 197.32) rotate(-28.16)"/><rect class="cls-1" x="240.77" y="198.96" width="2" height="126.89" transform="translate(-103.64 351.83) rotate(-61.86)"/><ellipse class="cls-4" cx="201.49" cy="508.97" rx="46.23" ry="94.33"/><path class="cls-1" d="M201.45,513l.27.51,41.8-22.37-.94-1.76-41,22c2.27-41.8,6.91-69.86,7-70.41l-2-.33c-.11.6-5.63,33.92-7.58,82.14l-41.4-22.16-.94,1.77,41.8,22.37.5-.93c-1.57,39.8-.69,89.56,7.62,139.41l2-.33C199.49,608.55,199.29,554.3,201.45,513Z"/><path class="cls-5" d="M561,384.46c-16.07-27.39-47.87-28.67-47.87-28.67s-31-4-50.87,37.73c-18.53,38.89-44.1,76.44-4.12,85.54l7.22-22.67,4.48,24.36A154.86,154.86,0,0,0,487,481c42.82-1.39,83.6.41,82.29-15.09C567.51,445.35,576.5,410.82,561,384.46Z"/><path class="cls-5" d="M449,603.9a61.36,61.36,0,0,1-1.95,8.46c-1,2.71-2.43,5.22-3.31,8-2.78,8.74,1.08,18.47,7.25,25.22a40.74,40.74,0,0,0,19.89,11.91c5.56,1.41,11.35,1.61,17.09,1.81,15.88.54,32.18,1,47.23-4.12a81.37,81.37,0,0,0,13.72-6.29,10.21,10.21,0,0,0,3.56-2.83c1.15-1.64,1.29-3.78,1.28-5.8,0-6.79-1.39-13.55-1.07-20.33.18-3.76.88-7.51.53-11.26a20.69,20.69,0,0,0-15.73-17.89c-4.27-.93-8.7-.42-13.05,0a331.79,331.79,0,0,1-33.95,1.53c-11.58-.07-23.09-1.86-34.62-2-3.41-.06-3.34,1-4.42,4.33A81.16,81.16,0,0,0,449,603.9Z"/><path class="cls-5" d="M403.7,598.38a34,34,0,0,0-9.53-1,24,24,0,0,0-17.38,9.11,24.51,24.51,0,0,0-4.71,19.18,40.31,40.31,0,0,0,3.77,10.41c2.53,5.17,5.56,10.34,10.24,13.65a39.6,39.6,0,0,0,9,4.34l24.65,9.37c3.63,1.38,7.26,2.76,10.92,4a211.89,211.89,0,0,0,57,11.44c5.92.35,11.93.45,17.7-.91a5.79,5.79,0,0,0,3.63-2,6.28,6.28,0,0,0,.81-2.7l1.52-10.71a9.22,9.22,0,0,0-.13-4.52c-.7-1.8-2.44-2.93-4.1-3.89-16.21-9.39-35.13-14.57-48.77-27.46-3.21-3-5.9-7.84-9.8-9.9-4.42-2.34-9.64-3.67-14.21-5.82C424.36,606.3,414.53,600.89,403.7,598.38Z"/><path class="cls-6" d="M428.31,612.82c8.71,2.75,45.5,21.83,51.8,28.49-.84.31-29.52-15.9-30.38-16.16-7.82-2.37-15.68-4.75-23.11-8.22-1.5-.69-9.71-4-9.34-5.87C417.7,608.91,426.76,612.33,428.31,612.82Z"/><path class="cls-2" d="M537,684.44a2,2,0,0,0,1.38-.41,2.19,2.19,0,0,0,.43-1.6l0-14.59c-4.16-2-8.81-2.64-13.38-3.26l-21.31-2.87c.49.06-3.33,9.25-2.75,10.48,1,2.17,8.93,4.08,11.15,5.1C520.24,680.84,528.29,684.75,537,684.44Z"/><path class="cls-2" d="M470.14,667.79c-4,.64-8.51,1.21-11.12,4.37-3.3,4-1.89,10-.32,14.94a6.32,6.32,0,0,0,1.37,2.72c1.08,1.07,2.73,1.23,4.23,1.33,3.67.23,7.58.42,10.79-1.4a47.49,47.49,0,0,0,4.18-3.14,26.81,26.81,0,0,1,7.7-3.55,77,77,0,0,1,15.46-3.21,23.76,23.76,0,0,0,6.09-1.09,6.76,6.76,0,0,0,4.29-4.2c.74-2.65-.79-5.35-2.25-7.68-1.83-2.89-3.76-5.94-6.48-8.08-4-3.11-5.94-.72-9.94,1.27A83.7,83.7,0,0,1,470.14,667.79Z"/><path class="cls-5" d="M459.63,671.44l-25.55-7.62a33.55,33.55,0,0,0-9.51-1.85c-3.24,0-6.63,1.07-8.73,3.56s-2.55,5.55-3,8.59l-1.06,6.5a33.18,33.18,0,0,0-.59,10c.48,3.32,2.16,6.63,5.07,8.23,3.54,1.95,7.87,1,11.82.18a128,128,0,0,1,24.21-2.62c3.06,0,6.27,0,9-1.44,3.21-1.72,5.13-5.35,5.46-9C467.19,680.4,465.35,673.15,459.63,671.44Z"/><path class="cls-5" d="M547.05,664.8c3.31-.58,6.24-2.48,9.41-3.6,4.47-1.58,9.31-1.58,14-1.56,1.74,0,3.59,0,5,1,2.09,1.4,2.62,4.2,3,6.7l2.14,15.09c.4,2.83.8,5.75.17,8.54s-2.52,5.5-5.27,6.22c-3.34.87-6.61-1.28-9.77-2.69-7.88-3.54-17-2.63-25.27-5.28-1.52-.49-3.16-1.24-3.78-2.72a6.25,6.25,0,0,1-.29-2.61c.14-4.85-.88-11.47.57-16.11C538.31,663.63,543.35,664.8,547.05,664.8Z"/><path class="cls-5" d="M601.12,592.31a43.77,43.77,0,0,1,15.63-1.08c4.18.46,8.48,1.64,11.53,4.55,3.71,3.55,4.91,9,5,14.2a44.68,44.68,0,0,1-9.56,28.34,25.75,25.75,0,0,1-5.47,5.31,35.64,35.64,0,0,1-7.11,3.45L556,669c-14.53,5.78-29.1,11.58-44.25,15.39a3.44,3.44,0,0,1-4.59-1.6l-.05-.1A115.79,115.79,0,0,1,495,660.41a1.52,1.52,0,0,1,.66-2.38l39-22.63a39.17,39.17,0,0,0,7.94-5.52,19.84,19.84,0,0,0,4.08-5.73c.81-1.7.89-5.73,1.92-7s4.48-1.33,6.08-1.82a52.86,52.86,0,0,0,6.61-2.52c8.73-3.94,16.51-9.66,24.88-14.28A63.3,63.3,0,0,1,601.12,592.31Z"/><path class="cls-6" d="M579,609.2c-6.71,5.09-15.39,9.76-22,15-2.27,1.78-40.1,23.23-40.63,26.08,6.2,1.06,45.71-26.82,51.37-29.61s10.66-6.7,15.63-10.6c1.26-1,6.63-4,3-5.08C584.26,604.34,580.49,608.19,579,609.2Z"/><circle class="cls-2" cx="511.79" cy="415.39" r="38"/><path class="cls-2" d="M527.79,447.39s-6,15,5,21-34,54-34,54l-20-58s17-6,14-22Z"/><path class="cls-3" d="M502.79,488.39,527,461.65l32.78,16.74-5,118-8,9s-34,30-86,5c0,0-18-15-17-38s-2-26-2-26l-1-81,49.38-9.69Z"/><path class="cls-2" d="M391.75,615.63l-6.18,19s-29.73,30.72-19,39.05,34.89-35.57,34.89-35.57l4.44-21.47Z"/><path class="cls-3" d="M448.79,468.39l-9-3s-14,4-16,18-17,85-17,85-6,3-2,8-20,50-20,50l19,9s38-40,38-44-1-8-1-12,1-4,0-7a32.65,32.65,0,0,1-1-8l7-16Z"/><polygon class="cls-5" points="553.92 381.82 522.51 365.22 479.12 372.01 470.14 412 492.49 411.14 498.73 396.45 498.73 410.89 509.04 410.5 515.03 387.11 518.77 412 555.42 411.25 553.92 381.82"/><path class="cls-7" d="M331.2,639.08v57.68H155a57.69,57.69,0,0,1,57.68-57.68c16.52-5.15,35.62-6.79,56.34-6.25C288.59,633.33,309.58,635.78,331.2,639.08Z"/><path class="cls-1" d="M306,684.18h82.84a5.25,5.25,0,0,1,5.25,5.24h0a5.24,5.24,0,0,1-5.25,5.24H306V684.18Z"/><path class="cls-1" d="M320.39,589.72l22.2-26.92a5.83,5.83,0,0,1,10.87.93l8.75,30.92Z"/><path class="cls-7" d="M293.45,603.43l8.39-33.87A5.83,5.83,0,0,1,312,565.7l21.26,24.09Z"/><path class="cls-7" d="M155,696.76H171.8v35.66A16.78,16.78,0,0,1,155,749.2h0V696.76Z"/><path class="cls-7" d="M302.89,686.28h82.85a5.24,5.24,0,0,1,5.24,5.24h0a5.25,5.25,0,0,1-5.24,5.24H302.89V686.28Z"/><path class="cls-8" d="M331.2,639.08v57.36A56.65,56.65,0,0,1,269,632.83C288.59,633.33,309.58,635.78,331.2,639.08Z"/><circle class="cls-7" cx="331.21" cy="640.13" r="56.63"/><ellipse class="cls-1" cx="385.74" cy="644.33" rx="6.29" ry="14.68"/><ellipse class="cls-1" cx="370.53" cy="629.12" rx="1.57" ry="3.67"/><ellipse class="cls-1" cx="382.07" cy="621.78" rx="1.57" ry="3.67"/><path class="cls-1" d="M326.45,582.87s-3.14-5.47-3.14-8.81"/><path class="cls-1" d="M327.84,579.33s1.71-6.08,4.1-8.41"/></svg>