<svg id="Layer_1" data-name="Layer 1" xmlns="http://www.w3.org/2000/svg" xmlns:xlink="http://www.w3.org/1999/xlink" viewBox="0 0 1646.23 171.29"><defs><style>.cls-1{font-size:115.9px;font-family:Aspekta-700, Aspekta;}.cls-1,.cls-3{fill:#fff;}.cls-2{fill:url(#linear-gradient);}</style><linearGradient id="linear-gradient" x1="29.47" y1="181.17" x2="140.53" y2="-11.17" gradientUnits="userSpaceOnUse"><stop offset="0" stop-color="#60efff"/><stop offset="1" stop-color="#0061ff"/></linearGradient></defs><title>intellifeeder</title><text class="cls-1" transform="translate(38.16 136.53)">IF</text><rect class="cls-2" width="170" height="170" rx="13.83" ry="13.83"/><path class="cls-3" d="M59.88,63.53H78.19V147H59.88Z" transform="translate(-15 -18)"/><path class="cls-3" d="M91.64,63.53h60.49V79.87H110V96.68h40v15.53H110V147H91.64Z" transform="translate(-15 -18)"/><path class="cls-3" d="M244.58,20.32h30.94v166.2H244.58Z" transform="translate(-15 -18)"/><path class="cls-3" d="M376.62,95.92q-5.53-6.81-17.54-6.81a29.59,29.59,0,0,0-17.89,6.23q-8.43,6.24-9.81,20.32v70.86H302.29v-120h28.16V82.88a51.07,51.07,0,0,1,16.16-14,44.39,44.39,0,0,1,21.7-5.19q20.31,0,31.51,12.81T411,110.81v75.71H382.16V114.27Q382.16,102.74,376.62,95.92Z" transform="translate(-15 -18)"/><path class="cls-3" d="M477,29.55V66.49h30.47V88.88H477v63.94q0,6,2.65,8.66t8.89,2.65h18.93v22.39H481.42q-16.4,0-24.81-6.81t-8.43-23.89V88.88h-21V66.49h21V29.55Z" transform="translate(-15 -18)"/><path class="cls-3" d="M548.6,181.1a54.44,54.44,0,0,1-20.55-22.39q-7.15-14.21-7.15-32.21t7.15-32.2A54.5,54.5,0,0,1,548.6,71.91q13.38-8.19,31.62-8.19t31.63,8.08a52.93,52.93,0,0,1,20.54,22.85q7.15,14.77,7.16,34.16v6.93h-89.8q1.85,14.31,9.81,22.51t20.66,8.19q20.78,0,28.63-16.62h28.39a55.57,55.57,0,0,1-21,28.85q-15,10.62-36,10.62Q562,189.29,548.6,181.1ZM610.23,115q-2.31-13.38-10-20.89t-20-7.5q-12.24,0-20,7.5T550,115Z" transform="translate(-15 -18)"/><path class="cls-3" d="M688.25,20.32v132.5q0,6,2.54,8.66t9,2.65h15.69v22.39H692.41q-16.39,0-24.82-6.81t-8.42-23.89V20.32Z" transform="translate(-15 -18)"/><path class="cls-3" d="M763,20.32v132.5q0,6,2.54,8.66t9,2.65h15.69v22.39H767.2q-16.4,0-24.82-6.81T734,155.82V20.32Z" transform="translate(-15 -18)"/><path class="cls-3" d="M808.52,20.32H837.6v27H808.52Zm0,46.17h28.85v120H808.52Z" transform="translate(-15 -18)"/><path class="cls-3" d="M914.24,20.32H1031.5V48.25H945.17V87.72h81.95V114.5H945.17v72H914.24Z" transform="translate(-15 -18)"/><path class="cls-3" d="M1070.75,181.1a54.44,54.44,0,0,1-20.55-22.39Q1043,144.51,1043,126.5t7.16-32.2a54.5,54.5,0,0,1,20.55-22.39q13.38-8.19,31.62-8.19T1134,71.8a52.93,52.93,0,0,1,20.54,22.85q7.15,14.77,7.16,34.16v6.93h-89.8q1.85,14.31,9.81,22.51t20.66,8.19q20.78,0,28.63-16.62h28.39a55.63,55.63,0,0,1-21,28.85q-15,10.62-36,10.62Q1084.13,189.29,1070.75,181.1ZM1132.38,115q-2.31-13.38-10-20.89t-20-7.5q-12.24,0-20,7.5T1072.13,115Z" transform="translate(-15 -18)"/><path class="cls-3" d="M1203.94,181.1a54.44,54.44,0,0,1-20.55-22.39q-7.16-14.21-7.15-32.21t7.15-32.2a54.5,54.5,0,0,1,20.55-22.39q13.38-8.19,31.62-8.19t31.63,8.08a52.93,52.93,0,0,1,20.54,22.85q7.15,14.77,7.16,34.16v6.93h-89.8q1.85,14.31,9.81,22.51t20.66,8.19q20.79,0,28.63-16.62h28.39a55.56,55.56,0,0,1-21,28.85q-15,10.62-36,10.62Q1217.34,189.29,1203.94,181.1ZM1265.57,115q-2.31-13.38-10-20.89t-20-7.5q-12.22,0-20,7.5T1205.32,115Z" transform="translate(-15 -18)"/><path class="cls-3" d="M1401.31,186.52V169.9a43.3,43.3,0,0,1-15.82,14.31q-9.57,5.08-22.27,5.08-17.09,0-29.2-8.08a50.29,50.29,0,0,1-18.36-22.39q-6.23-14.31-6.23-32.32t6.23-32.31A50.34,50.34,0,0,1,1334,71.8q12.12-8.09,29.2-8.08,24,0,36.93,17.77V20.32h29.09v166.2Zm-54.6-31.74q7.74,10.28,23.2,10.28,15.24,0,23-10.28t7.73-28.28q0-18-7.73-28.27t-23-10.27q-15.47,0-23.2,10.27T1339,126.5Q1339,144.51,1346.71,154.78Z" transform="translate(-15 -18)"/><path class="cls-3" d="M1476.79,181.1a54.35,54.35,0,0,1-20.54-22.39q-7.17-14.21-7.16-32.21t7.16-32.2a54.41,54.41,0,0,1,20.54-22.39q13.38-8.19,31.63-8.19T1540,71.8a53,53,0,0,1,20.55,22.85q7.14,14.77,7.15,34.16v6.93H1478q1.83,14.31,9.81,22.51t20.66,8.19q20.77,0,28.62-16.62h28.39a55.56,55.56,0,0,1-21,28.85q-15,10.62-36,10.62Q1490.18,189.29,1476.79,181.1ZM1538.42,115q-2.31-13.38-10-20.89t-20-7.5q-12.24,0-20,7.5T1478.18,115Z" transform="translate(-15 -18)"/><path class="cls-3" d="M1587.36,66.49h28.16V88q10.86-22.86,36.25-22.86h9.46V91.88h-10.62q-16.39,0-25.28,8.31t-8.88,28.16v58.17h-29.09Z" transform="translate(-15 -18)"/></svg>